PathFileType	4	(X/Y/Z)	/home/skhan/TracX/Projects/SHARESPACE/EXERCISES/pose-3d/online_20250326-113730_310-350.trc
DataRate	CameraRate	NumFrames	NumMarkers	Units	OrigDataRate	OrigDataStartFrame	OrigNumFrames
30	30	4	37	m	30	750	1200
Frame#	Time	Hip			RHip			RKnee			RAnkle			RBigToe			RSmallToe			RHeel			LHip			LKnee			LAnkle			LBigToe			LSmallToe			LHeel			Spine_01			Spine_02			Spine_03			Spine_04			Spine_05			LLatissimus			RLatissimus			RClavicle			RShoulder			RElbow			RWrist			LClavicle			LShoulder			LElbow			LWrist			Neck			Neck_02			Neck_03			Head			Nose			LEye			LEar			REye			REar		
		X1	Y1	Z1	X2	Y2	Z2	X3	Y3	Z3	X4	Y4	Z4	X5	Y5	Z5	X6	Y6	Z6	X7	Y7	Z7	X8	Y8	Z8	X9	Y9	Z9	X10	Y10	Z10	X11	Y11	Z11	X12	Y12	Z12	X13	Y13	Z13	X14	Y14	Z14	X15	Y15	Z15	X16	Y16	Z16	X17	Y17	Z17	X18	Y18	Z18	X19	Y19	Z19	X20	Y20	Z20	X21	Y21	Z21	X22	Y22	Z22	X23	Y23	Z23	X24	Y24	Z24	X25	Y25	Z25	X26	Y26	Z26	X27	Y27	Z27	X28	Y28	Z28	X29	Y29	Z29	X30	Y30	Z30	X31	Y31	Z31	X32	Y32	Z32	X33	Y33	Z33	X34	Y34	Z34	X35	Y35	Z35	X36	Y36	Z36	X37	Y37	Z37
750	25.0	-0.046084928961491765	-0.45235094528059355	0.18060860417218833	-0.02749916031979555	-0.3946668610600296	0.06085897923543307	0.3150146062217578	-0.7296339561883869	-0.09935385913345984	0.6627562331490202	-0.9003063644236848	-0.11626019483221992	0.8367307209550341	-0.8289055861271901	-0.16010002004240312	0.7948577762697934	-0.8137078276876467	-0.1836839416266596	0.6860818671343566	-0.9088581154914274	-0.06481241694124334	0.051767556270378205	-0.4032596400390892	0.27983006838262575	0.3859524360263039	-0.6544638965327947	0.10159779653021139	0.7090308439104336	-0.8974110467668163	-0.03866361412125628	0.8522628445072167	-0.876967443717297	-0.16606086036711334	0.8702748695593903	-0.8881000451288242	-0.1056197237741146	0.7211425749817241	-0.9334425517272512	-0.025026216541389618	-0.09594136036935531	-0.4159946564090537	0.19655753613120627	-0.17387119193748923	-0.34643752047922904	0.23190149519304232	-0.2729537467221275	-0.2540900165344798	0.27508074568117036	-0.37787917716202235	-0.156021689077401	0.32344613027397046	-0.4757531756713904	-0.05624229951095845	0.3727305984988708	-0.22636367441289848	-0.24221800413421676	0.38393058477771075	-0.36322061365310915	-0.25104199028635665	0.16208993429734783	-0.4618045703214439	-0.0896836986620737	0.3343742824338104	-0.5851015305846524	-0.0682509487353122	0.18306166035033428	-0.5852944841094653	-0.14684913993128906	-0.08989083186741556	-0.45077703100533684	0.019167876440753417	-0.2373729380317985	-0.4416165794701142	-0.09009495152320593	0.3623943868320492	-0.35246236265578407	-0.0997485385015357	0.5352065807775923	-0.08942323292499578	-0.3116447410555799	0.49422389724892346	0.15465583134521985	-0.4934321294450782	0.35326396146590644	-0.5493254927470195	0.020767997369805846	0.4181455415222216	-0.5768951232902708	0.05766297794894027	0.44469748417005356	-0.6138065632530965	0.11155620427191819	0.48351745376014943	-0.6700424220550523	0.19870074989206343	0.5440527710482747	-0.5717940556958275	0.19651438562442106	0.37580859335980493	-0.5722441685780832	0.20451534389583162	0.44466458338968123	-0.5188876959972109	0.10720270057504765	0.5116960398345128	-0.6302188148166011	0.18365296244339538	0.3913742920466129	-0.6655412364400708	0.11196775007810515	0.36973828301973266
751	25.033333333333335	-0.04896749425930104	-0.45322610101723526	0.18377980537609648	-0.02560554506324589	-0.3900386263080236	0.061297185721417555	0.3243630835674867	-0.7131414629995375	-0.09334071876676311	0.663432004838859	-0.8996188215187021	-0.11729378381174377	0.8369858854319943	-0.8319518706198228	-0.1630260784475578	0.7940976824029056	-0.8181886774951399	-0.18782350669930162	0.6863746357443083	-0.9083142213096196	-0.06590275348849928	0.05313286676386342	-0.4001063424133003	0.2795844598320448	0.3869471234860985	-0.6553976648301343	0.10200856469013349	0.7090944695396165	-0.9007531728367706	-0.040020146703333245	0.8519783869913172	-0.8782249198756331	-0.16482277477551555	0.8702530371207365	-0.8884405974445321	-0.10415485103047162	0.7209252972812356	-0.9348710877268224	-0.025984222029538664	-0.09882722082547335	-0.4156936041084135	0.19972065872637368	-0.17645243186423076	-0.346057621164869	0.23412297090175654	-0.2745484646990459	-0.25231749531912256	0.27675761173101004	-0.37858160745579145	-0.15421404943826558	0.3243724608799243	-0.4759304774317135	-0.054935340985153944	0.37322862121433253	-0.2274740649526861	-0.23662331709338857	0.38532015448197643	-0.36495651058048506	-0.2496005329747667	0.16344283879374394	-0.46166209629925814	-0.08794972887210814	0.3346424335889694	-0.5854811135720389	-0.06841423290588472	0.18556497341915043	-0.5858950870648794	-0.14862828364521571	-0.08867753959184949	-0.45140480586494836	0.01772556631442023	-0.23706182247406227	-0.4414455182174458	-0.08824411180782324	0.36197347160098237	-0.35198991477487607	-0.09735823344143615	0.5365777351113301	-0.09088599337935764	-0.3128884754926568	0.49415404139082597	0.15436626605723314	-0.49446620260011304	0.3534077895039508	-0.5494007802746945	0.021636898245391906	0.4190269753676717	-0.5773246664773466	0.057929837184169025	0.4457236036314738	-0.6146549441238267	0.11065154762503106	0.484149236761789	-0.671550157144236	0.19701547157930566	0.5445621411002066	-0.5713511563305347	0.19567571577051168	0.37761640414638864	-0.5731140364651237	0.20268328806555702	0.44522094614591984	-0.5190902485205902	0.10690600568812783	0.5115132516715705	-0.6293837579458366	0.1845601577741519	0.3925749023806608	-0.6648213969114876	0.11435077223355226	0.36991869464335264
752	25.066666666666666	-0.048280609623278785	-0.4491343662887798	0.18514821064544917	-0.025097262530451185	-0.3883759261133888	0.062307961033626076	0.3293214657568838	-0.6928783458134549	-0.08723503266562722	0.6594568122811455	-0.9069724785867114	-0.1180081752501514	0.834326600326692	-0.8375154854401349	-0.16169075999299398	0.7928416386831637	-0.8212915323394157	-0.1851392248517111	0.6839233343142991	-0.9139013192475657	-0.06605410144053966	0.05324203300600276	-0.3970478269067084	0.2806249748492371	0.3870555706348987	-0.6457540482002356	0.10416870678855028	0.7069137054367669	-0.9014729721738137	-0.038892666227785894	0.8513777628617949	-0.8786749234975818	-0.16453321924313244	0.8694593109639148	-0.8895940810441694	-0.10476150398372899	0.717820066836717	-0.9357778388070371	-0.023920607414606342	-0.09789390639782977	-0.4108593215521	0.2014738930427807	-0.17517760270679908	-0.3422054294265372	0.2359425300038262	-0.27312699270921686	-0.2503863147119732	0.2781591210498684	-0.37727498280785654	-0.15247775965375615	0.3255076298709002	-0.474588720115845	-0.053893146272191585	0.3737909023770398	-0.22514233926962712	-0.23428319555462393	0.3866486191120196	-0.3629134007079504	-0.24629280563778372	0.165998405474199	-0.4601332805670516	-0.08555985058601565	0.3361243023890999	-0.5848861152165957	-0.06791049691679424	0.18498460068124833	-0.5863143942838118	-0.1483268680466031	-0.08935124736370702	-0.45063657195973456	0.019778723827071576	-0.23656636465545317	-0.4397850042908481	-0.08560147585360936	0.36326753388970673	-0.35196553473926073	-0.09441703781215124	0.5370646488290839	-0.09059509644946699	-0.3115476395553843	0.4937978921350443	0.1539479661771152	-0.49812550350865414	0.35252952636888113	-0.5484353356641907	0.02248226920621555	0.4194443830029776	-0.576682403635275	0.05798803187400605	0.4457886067751956	-0.6146558772776913	0.11071999864526913	0.4842911545737576	-0.6722016587158095	0.19710834373197333	0.5448678131784287	-0.5721315628516946	0.1926289048213876	0.3781937797138373	-0.573374985403667	0.1987085050015684	0.4451567427576317	-0.5180873176959239	0.10712430283841615	0.5117662306434613	-0.6301129959863438	0.1823898294151789	0.3936516858027503	-0.6648967278812952	0.1164333795099865	0.3700999659393814
753	25.1	-0.051904067003747126	-0.4491922071575632	0.1884923927370491	-0.023876157644281575	-0.3862928404949233	0.0627799043413263	0.3292792913206873	-0.6934043315765805	-0.08587491475968576	0.6603688212394551	-0.906316397290394	-0.11716048135590944	0.8354905690562122	-0.8397513867273422	-0.1631292173627148	0.7923803563661737	-0.8238410170237015	-0.18704545238749218	0.6852514306174712	-0.9137567172243926	-0.06452243651093806	0.05322312093227645	-0.3976021068399703	0.28005381949055386	0.38440817625894924	-0.650732904652656	0.10407775448775772	0.7074457880190883	-0.9038286989603095	-0.04019328571227756	0.8503706171191887	-0.87782711077901	-0.16400736002200822	0.869439657670393	-0.8890025088027886	-0.10497796153032857	0.7188670145540327	-0.9377613718165055	-0.024314026860387528	-0.10154600917950249	-0.4110425916722487	0.20407425855389735	-0.17806010478669984	-0.3429497956354912	0.237399151648315	-0.2746813488731318	-0.2517197464011982	0.27833379459088003	-0.37776282260224814	-0.15383275246181305	0.325026766722351	-0.47459551919010556	-0.05589867125737702	0.37303497655358875	-0.22556237567606613	-0.2354343498954949	0.3847873531650663	-0.36521219080191747	-0.2473500781462054	0.16758370744745396	-0.4600283037781801	-0.08579857312866614	0.33545771622085585	-0.5848310770797712	-0.06719506022471983	0.18498074910984946	-0.585617533968259	-0.1477707838569583	-0.08960420605129842	-0.45054692958384157	0.019789802838123975	-0.23721082547498765	-0.4398672160335673	-0.08818813494916856	0.3622621715800972	-0.35171540542952645	-0.0942831759360965	0.5374207865890983	-0.09114463520663348	-0.3153516952676652	0.49202542133350025	0.15396732475724317	-0.5000932664319524	0.3517571354008269	-0.5481749429550209	0.020179340969087987	0.41919048566241307	-0.5767768775204225	0.05570726992476108	0.445914075349633	-0.6152050798630744	0.1083533797197211	0.4845148075609168	-0.6732854622175315	0.1943847857370098	0.5455048295922578	-0.5721120817935734	0.19116905939614667	0.3789150124662028	-0.574512428217809	0.19655045038850338	0.4448004011599068	-0.5189413756036526	0.10569900052056536	0.5116865351913984	-0.6298446646544579	0.1819463457524718	0.39373428885297057	-0.6647947331929592	0.11659483608196756	0.3692919809281446
